/* XPM */
static char * dspectogram_mini_xpm[] = {
"16 16 87 1",
" 	c None",
".	c #5B5B5B",
"+	c #DADADA",
"@	c #B8B8B8",
"#	c #848484",
"$	c #8F8F8F",
"%	c #909090",
"&	c #8A8A8A",
"*	c #646466",
"=	c #1C1B19",
"-	c #0C0C0A",
";	c #B1B1B1",
">	c #1C1D1D",
",	c #1C1B1B",
"'	c #1E1F1D",
")	c #141414",
"!	c #1C1D1B",
"~	c #2B2A2A",
"{	c #0E0E0F",
"]	c #060605",
"^	c #080806",
"/	c #4E4E4E",
"(	c #0B0B0B",
"_	c #1E1D19",
":	c #272623",
"<	c #282623",
"[	c #211D1B",
"}	c #3B362B",
"|	c #4A4133",
"1	c #3D352A",
"2	c #252119",
"3	c #C0BDB8",
"4	c #1B1915",
"5	c #222222",
"6	c #24221A",
"7	c #31224C",
"8	c #000CFF",
"9	c #3A3226",
"0	c #B8B8B7",
"a	c #151311",
"b	c #171717",
"c	c #030303",
"d	c #2A271E",
"e	c #2A2A2A",
"f	c #050505",
"g	c #474031",
"h	c #393939",
"i	c #070707",
"j	c #AB07F2",
"k	c #585040",
"l	c #413B2D",
"m	c #4D4432",
"n	c #D3D1CF",
"o	c #191714",
"p	c #353535",
"q	c #070606",
"r	c #4E4533",
"s	c #2B2B2B",
"t	c #645F57",
"u	c #453B2D",
"v	c #423B2F",
"w	c #A49D95",
"x	c #1F1C18",
"y	c #3A3227",
"z	c #3F372C",
"A	c #5F5950",
"B	c #393125",
"C	c #383228",
"D	c #322D22",
"E	c #9C9A93",
"F	c #252422",
"G	c #67635D",
"H	c #5B5A55",
"I	c #6F6862",
"J	c #62605D",
"K	c #817F75",
"L	c #737269",
"M	c #939593",
"N	c #040403",
"O	c #1C1C16",
"P	c #161511",
"Q	c #151412",
"R	c #090807",
"S	c #151514",
"T	c #1E1C1A",
"U	c #0C0B09",
"V	c #121110",
"................",
".+@#$%&%#$%#*=-.",
".;>,')!)~')~{]^.",
"./(_:<[}|121234.",
".5(67878787890a.",
".bcd87788777234.",
".efg8788778720a.",
".hig7878j788k34.",
".5fl88878888mno.",
".pqrj8j88j88m0a.",
".sf}8j88j88jt34.",
".efuj8jjjjjjvwx.",
".hiyzABCDyzCDEF.",
".sfGHIGJKIGJLMN.",
".OPQRPQSOPQSTUV.",
"................"};
